<svg width="30" height="30" viewBox="0 0 30 30" fill="none" xmlns="http://www.w3.org/2000/svg">
<path fill-rule="evenodd" clip-rule="evenodd" d="M13.7569 2.5H16.2431C17.9756 2.49999 19.3535 2.49999 20.4645 2.59225C21.6024 2.68674 22.5719 2.88444 23.4572 3.3444C24.8271 4.05596 25.944 5.17286 26.6556 6.54269C27.1156 7.42816 27.3132 8.39764 27.4077 9.53549C27.5 10.6465 27.5 12.0244 27.5 13.7569V16.2431C27.5 17.9756 27.5 19.3535 27.4077 20.4645C27.3132 21.6024 27.1156 22.5719 26.6556 23.4572C25.944 24.8271 24.8271 25.944 23.4572 26.6556C22.5719 27.1156 21.6024 27.3132 20.4645 27.4077C19.3535 27.5 17.9756 27.5 16.2431 27.5H13.7569C12.0244 27.5 10.6465 27.5 9.53549 27.4077C8.39764 27.3132 7.42816 27.1156 6.54269 26.6556C5.17286 25.944 4.05596 24.8271 3.3444 23.4572C2.88444 22.5719 2.68674 21.6024 2.59225 20.4645C2.49999 19.3535 2.49999 17.9756 2.5 16.2431V13.7569C2.49999 12.0244 2.49999 10.6465 2.59225 9.53549C2.68674 8.39764 2.88444 7.42816 3.3444 6.54269C4.05596 5.17286 5.17286 4.05596 6.54269 3.3444C7.42816 2.88444 8.39764 2.68674 9.53549 2.59225C10.6465 2.49999 12.0244 2.49999 13.7569 2.5ZM9.74239 5.08367C8.76194 5.16509 8.16427 5.31922 7.69512 5.56294C6.78191 6.03731 6.03731 6.78191 5.56294 7.69512C5.31922 8.16427 5.16509 8.76194 5.08367 9.74239C5.001 10.7378 5 12.0119 5 13.8125V16.1875C5 17.9881 5.001 19.2621 5.08367 20.2576C5.16509 21.2381 5.31922 21.8357 5.56294 22.3049C6.03731 23.2181 6.78191 23.9627 7.69512 24.4371C8.16427 24.6807 8.76194 24.8349 9.74239 24.9164C10.7378 24.999 12.0119 25 13.8125 25H16.1875C17.9881 25 19.2621 24.999 20.2576 24.9164C21.2381 24.8349 21.8357 24.6807 22.3049 24.4371C23.2181 23.9627 23.9627 23.2181 24.4371 22.3049C24.6807 21.8357 24.8349 21.2381 24.9164 20.2576C24.999 19.2621 25 17.9881 25 16.1875V13.8125C25 12.0119 24.999 10.7378 24.9164 9.74239C24.8349 8.76194 24.6807 8.16427 24.4371 7.69512C23.9627 6.78191 23.2181 6.03731 22.3049 5.56294C21.8357 5.31922 21.2381 5.16509 20.2576 5.08367C19.2621 5.001 17.9881 5 16.1875 5H13.8125C12.0119 5 10.7378 5.001 9.74239 5.08367ZM14.7855 8.4467C15.4759 8.4467 16.0355 9.00634 16.0355 9.6967V15.9056L20.4441 17.5816C21.0895 17.8269 21.4137 18.5489 21.1684 19.1941C20.9231 19.8395 20.2011 20.1637 19.5559 19.9184L14.3414 17.9362C13.8562 17.7517 13.5355 17.2867 13.5355 16.7677V9.6967C13.5355 9.00634 14.0951 8.4467 14.7855 8.4467Z" fill="#FF7A00"/>
</svg>
