<svg width="32" height="32" viewBox="0 0 32 32" fill="none" xmlns="http://www.w3.org/2000/svg">
<g clip-path="url(#clip0_0_167)">
<path d="M0 26C0 26.7956 0.31607 27.5587 0.87868 28.1213C1.44129 28.6839 2.20435 29 3 29H29C29.7956 29 30.5587 28.6839 31.1213 28.1213C31.6839 27.5587 32 26.7956 32 26V12C32 11.2044 31.6839 10.4413 31.1213 9.87868C30.5587 9.31607 29.7956 9 29 9H3C2.20435 9 1.44129 9.31607 0.87868 9.87868C0.31607 10.4413 0 11.2044 0 12L0 26ZM4 6C4 6.26522 4.10536 6.51957 4.29289 6.70711C4.48043 6.89464 4.73478 7 5 7H27C27.2652 7 27.5196 6.89464 27.7071 6.70711C27.8946 6.51957 28 6.26522 28 6C28 5.73478 27.8946 5.48043 27.7071 5.29289C27.5196 5.10536 27.2652 5 27 5H5C4.73478 5 4.48043 5.10536 4.29289 5.29289C4.10536 5.48043 4 5.73478 4 6ZM8 2C8 2.26522 8.10536 2.51957 8.29289 2.70711C8.48043 2.89464 8.73478 3 9 3H23C23.2652 3 23.5196 2.89464 23.7071 2.70711C23.8946 2.51957 24 2.26522 24 2C24 1.73478 23.8946 1.48043 23.7071 1.29289C23.5196 1.10536 23.2652 1 23 1H9C8.73478 1 8.48043 1.10536 8.29289 1.29289C8.10536 1.48043 8 1.73478 8 2Z" fill="white"/>
</g>
<defs>
<clipPath id="clip0_0_167">
<rect width="32" height="32" fill="white"/>
</clipPath>
</defs>
</svg>
