<svg width="32" height="32" viewBox="0 0 32 32" fill="none" xmlns="http://www.w3.org/2000/svg">
<path fill-rule="evenodd" clip-rule="evenodd" d="M25.6 22.4V3.2C25.6 2.35131 25.2629 1.53737 24.6627 0.937258C24.0626 0.337142 23.2487 0 22.4 0H3.2C2.35131 0 1.53737 0.337142 0.937258 0.937258C0.337142 1.53737 0 2.35131 0 3.2V22.4C0 23.2487 0.337142 24.0626 0.937258 24.6627C1.53737 25.2629 2.35131 25.6 3.2 25.6H22.4C23.2487 25.6 24.0626 25.2629 24.6627 24.6627C25.2629 24.0626 25.6 23.2487 25.6 22.4ZM32 4.8V28.8C32 29.6487 31.6629 30.4626 31.0627 31.0627C30.4626 31.6629 29.6487 32 28.8 32H8C7.57565 32 7.16869 31.8314 6.86863 31.5314C6.56857 31.2313 6.4 30.8243 6.4 30.4C6.4 29.9757 6.56857 29.5687 6.86863 29.2686C7.16869 28.9686 7.57565 28.8 8 28.8H28.8V4.8C28.8 4.37565 28.9686 3.96869 29.2686 3.66863C29.5687 3.36857 29.9757 3.2 30.4 3.2C30.8243 3.2 31.2313 3.36857 31.5314 3.66863C31.8314 3.96869 32 4.37565 32 4.8ZM10.9839 17.2818C11.1789 17.3642 11.3883 17.4071 11.6 17.408C11.8224 17.4158 12.044 17.3772 12.2506 17.2946C12.4572 17.2119 12.6444 17.0871 12.8 16.928L18.672 10.992C18.97 10.6922 19.1373 10.2867 19.1373 9.864C19.1373 9.4413 18.97 9.03578 18.672 8.736C18.5233 8.58603 18.3463 8.467 18.1513 8.38577C17.9563 8.30454 17.7472 8.26272 17.536 8.26272C17.3248 8.26272 17.1157 8.30454 16.9207 8.38577C16.7257 8.467 16.5487 8.58603 16.4 8.736L11.6 13.536L9.136 11.072C8.98726 10.922 8.8103 10.803 8.61532 10.7218C8.42035 10.6405 8.21122 10.5987 8 10.5987C7.78878 10.5987 7.57965 10.6405 7.38468 10.7218C7.1897 10.803 7.01274 10.922 6.864 11.072C6.566 11.3718 6.39873 11.7773 6.39873 12.2C6.39873 12.6227 6.566 13.0282 6.864 13.328L10.464 16.928C10.6122 17.0792 10.7889 17.1995 10.9839 17.2818Z" fill="white"/>
</svg>
