<svg width="30" height="30" viewBox="0 0 30 30" fill="none" xmlns="http://www.w3.org/2000/svg">
<path d="M25.3125 1.875H4.6875C3.94158 1.875 3.22621 2.17132 2.69876 2.69876C2.17132 3.22621 1.875 3.94158 1.875 4.6875L1.875 25.3125C1.875 26.0584 2.17132 26.7738 2.69876 27.3012C3.22621 27.8287 3.94158 28.125 4.6875 28.125H12.7295V19.2006H9.03809V15H12.7295V11.7984C12.7295 8.15684 14.8975 6.14531 18.218 6.14531C19.8082 6.14531 21.4711 6.42891 21.4711 6.42891V10.0031H19.6389C17.8336 10.0031 17.2705 11.1234 17.2705 12.2725V15H21.3006L20.6561 19.2006H17.2705V28.125H25.3125C26.0584 28.125 26.7738 27.8287 27.3012 27.3012C27.8287 26.7738 28.125 26.0584 28.125 25.3125V4.6875C28.125 3.94158 27.8287 3.22621 27.3012 2.69876C26.7738 2.17132 26.0584 1.875 25.3125 1.875Z" fill="white"/>
</svg>
