<svg width="30" height="30" viewBox="0 0 30 30" fill="none" xmlns="http://www.w3.org/2000/svg">
<path d="M15 11.8746C14.3819 11.8748 13.7778 12.0583 13.2639 12.4019C12.7501 12.7455 12.3497 13.2337 12.1134 13.8048C11.877 14.3759 11.8153 15.0043 11.936 15.6105C12.0567 16.2166 12.3545 16.7734 12.7916 17.2104C13.2287 17.6474 13.7856 17.9449 14.3919 18.0654C14.9981 18.1859 15.6265 18.124 16.1975 17.8874C16.7685 17.6508 17.2565 17.2502 17.5999 16.7363C17.9433 16.2223 18.1266 15.6181 18.1266 15C18.1259 14.1711 17.7963 13.3763 17.2101 12.7903C16.6238 12.2043 15.8289 11.8749 15 11.8746ZM22.3072 9.47227C22.1481 9.06905 21.9079 8.70282 21.6013 8.39631C21.2948 8.0898 20.9286 7.84954 20.5254 7.69043C19.2949 7.20469 16.3652 7.31367 15 7.31367C13.6348 7.31367 10.708 7.20059 9.47402 7.69043C9.07081 7.84954 8.70458 8.0898 8.39807 8.39631C8.09156 8.70282 7.85129 9.06905 7.69219 9.47227C7.20703 10.7027 7.31543 13.6354 7.31543 14.9994C7.31543 16.3635 7.20703 19.2926 7.69453 20.5271C7.85364 20.9304 8.0939 21.2966 8.40041 21.6031C8.70693 21.9096 9.07315 22.1499 9.47637 22.309C10.7068 22.7947 13.6365 22.6857 15.0023 22.6857C16.3682 22.6857 19.2938 22.7988 20.5277 22.309C20.931 22.1499 21.2972 21.9096 21.6037 21.6031C21.9102 21.2966 22.1505 20.9304 22.3096 20.5271C22.7988 19.2967 22.6863 16.3641 22.6863 15C22.6863 13.6359 22.7988 10.7074 22.3096 9.47285L22.3072 9.47227ZM15 19.8047C14.0497 19.8047 13.1208 19.5229 12.3307 18.995C11.5405 18.467 10.9247 17.7166 10.561 16.8387C10.1974 15.9607 10.1022 14.9947 10.2876 14.0627C10.473 13.1306 10.9306 12.2745 11.6026 11.6026C12.2745 10.9306 13.1306 10.473 14.0627 10.2876C14.9947 10.1022 15.9607 10.1974 16.8387 10.561C17.7166 10.9247 18.467 11.5405 18.995 12.3307C19.5229 13.1208 19.8047 14.0497 19.8047 15C19.8055 15.6312 19.6817 16.2563 19.4405 16.8396C19.1993 17.4229 18.8455 17.9528 18.3991 18.3991C17.9528 18.8455 17.4229 19.1993 16.8396 19.4405C16.2563 19.6817 15.6312 19.8055 15 19.8047ZM20.0027 11.1152C19.7809 11.1153 19.564 11.0497 19.3795 10.9265C19.195 10.8034 19.0512 10.6282 18.9662 10.4233C18.8812 10.2184 18.8589 9.9929 18.9021 9.77532C18.9453 9.55773 19.0521 9.35785 19.2089 9.20095C19.3658 9.04405 19.5656 8.93718 19.7831 8.89386C20.0007 8.85054 20.2262 8.87271 20.4312 8.95758C20.6361 9.04244 20.8113 9.18619 20.9346 9.37063C21.0578 9.55507 21.1236 9.77192 21.1236 9.99375C21.1243 10.1411 21.0958 10.287 21.0398 10.4233C20.9839 10.5596 20.9016 10.6835 20.7977 10.7879C20.6938 10.8923 20.5703 10.9752 20.4343 11.0318C20.2982 11.0883 20.1524 11.1175 20.0051 11.1176L20.0027 11.1152ZM25.3125 1.875H4.6875C3.94158 1.875 3.22621 2.17132 2.69876 2.69876C2.17132 3.22621 1.875 3.94158 1.875 4.6875L1.875 25.3125C1.875 26.0584 2.17132 26.7738 2.69876 27.3012C3.22621 27.8287 3.94158 28.125 4.6875 28.125H25.3125C26.0584 28.125 26.7738 27.8287 27.3012 27.3012C27.8287 26.7738 28.125 26.0584 28.125 25.3125V4.6875C28.125 3.94158 27.8287 3.22621 27.3012 2.69876C26.7738 2.17132 26.0584 1.875 25.3125 1.875ZM24.3094 18.8672C24.2338 20.3689 23.891 21.6996 22.7947 22.793C21.6984 23.8863 20.3689 24.2361 18.8689 24.3076C17.3215 24.3949 12.682 24.3949 11.1346 24.3076C9.63281 24.232 8.30684 23.8887 7.20879 22.793C6.11074 21.6973 5.76562 20.366 5.69414 18.8672C5.60684 17.3191 5.60684 12.6791 5.69414 11.1328C5.76973 9.63105 6.1084 8.30039 7.20879 7.20703C8.30918 6.11367 9.63867 5.76797 11.1346 5.69648C12.682 5.60918 17.3215 5.60918 18.8689 5.69648C20.3707 5.77207 21.7008 6.11543 22.7947 7.21113C23.8887 8.30684 24.2379 9.63809 24.3094 11.1398C24.3967 12.682 24.3967 17.318 24.3094 18.8672Z" fill="white"/>
</svg>
