<svg width="30" height="30" viewBox="0 0 30 30" fill="none" xmlns="http://www.w3.org/2000/svg">
<path d="M25 13.75C25 16.5856 23.5706 19.1531 21.7926 21.25C19.8806 23.5049 17.5656 25.2155 16.1916 26.1299C15.4646 26.6135 14.5354 26.6135 13.8084 26.1299C12.4344 25.2155 10.1193 23.5049 8.20739 21.25C6.42941 19.1531 5 16.5856 5 13.75C5 8.22715 9.47715 3.75 15 3.75C20.5229 3.75 25 8.22715 25 13.75Z" stroke="#FF7A00" stroke-width="2"/>
<path d="M18.75 13.75C18.75 15.8211 17.0711 17.5 15 17.5C12.9289 17.5 11.25 15.8211 11.25 13.75C11.25 11.6789 12.9289 10 15 10C17.0711 10 18.75 11.6789 18.75 13.75Z" stroke="#FF7A00" stroke-width="2"/>
</svg>
