<svg width="30" height="30" viewBox="0 0 30 30" fill="none" xmlns="http://www.w3.org/2000/svg">
<path d="M17.5625 7.5C18.7835 7.73821 19.9055 8.33533 20.7851 9.21493C21.6647 10.0945 22.2619 11.2166 22.5 12.4375M17.5625 2.5C20.0991 2.7818 22.4645 3.91771 24.2704 5.72126C26.0761 7.5248 27.2151 9.88876 27.5 12.425M23.125 26.25C12.4245 26.25 3.75 17.5755 3.75 6.875C3.75 6.39222 3.76766 5.91357 3.80236 5.43966C3.84219 4.89577 3.8621 4.62384 4.00463 4.37629C4.12268 4.17126 4.33187 3.97683 4.54497 3.87406C4.80226 3.75 5.10235 3.75 5.70251 3.75H9.22415C9.72885 3.75 9.9812 3.75 10.1975 3.83306C10.3886 3.90644 10.5588 4.02561 10.693 4.18012C10.845 4.35504 10.9312 4.5922 11.1037 5.06651L12.5614 9.07506C12.762 9.62691 12.8624 9.90284 12.8454 10.1646C12.8304 10.3955 12.7515 10.6176 12.6178 10.8063C12.4661 11.0203 12.2143 11.1714 11.7108 11.4735L10 12.5C11.5024 15.8111 14.1876 18.4999 17.5 20L18.5265 18.2893C18.8286 17.7856 18.9796 17.5339 19.1936 17.3822C19.3824 17.2485 19.6045 17.1696 19.8354 17.1546C20.0971 17.1376 20.3731 17.238 20.925 17.4386L24.9335 18.8962C25.4078 19.0687 25.645 19.155 25.8199 19.307C25.9744 19.4412 26.0936 19.6114 26.1669 19.8025C26.25 20.0188 26.25 20.2711 26.25 20.7759V24.2975C26.25 24.8976 26.25 25.1978 26.1259 25.455C26.0231 25.6681 25.8288 25.8774 25.6238 25.9954C25.3761 26.1379 25.1043 26.1577 24.5604 26.1976C24.0864 26.2324 23.6078 26.25 23.125 26.25Z" stroke="#FF7A00" stroke-width="2" stroke-linecap="round" stroke-linejoin="round"/>
</svg>
