<svg width="100" height="100" viewBox="0 0 100 100" fill="none" xmlns="http://www.w3.org/2000/svg">
<path d="M92.2875 21.697L92.3046 21.7511C93.1885 24.5442 93.6029 27.4653 93.5307 30.3949C93.5469 36.7993 91.0496 42.9531 86.5785 47.5262C84.4014 49.7741 81.7971 51.5615 78.9194 52.783C76.0417 54.0044 72.949 54.635 69.8242 54.6375C69.8241 54.6375 69.8241 54.6375 69.824 54.6375L69.824 54.5375C66.7329 54.5438 63.673 53.9188 60.825 52.7063L92.2875 21.697ZM92.2875 21.697L92.2323 21.684L87.3713 20.534L87.3171 20.5211L87.2777 20.5605L74.2121 33.5892L66.9092 26.1302L79.6557 12.7189L79.6926 12.6801L79.6808 12.6279L78.559 7.67793L78.5466 7.6231L78.4933 7.60522C75.7759 6.6935 72.9336 6.211 70.0684 6.17504C66.9403 6.12682 63.8358 6.72516 60.9484 7.93277L60.9484 7.93273L60.9457 7.93397C58.159 9.199 55.6401 10.9881 53.5252 13.2042C51.1712 15.441 49.3069 18.1444 48.0506 21.1426L48.0502 21.1437C45.6398 27.0902 45.6315 33.743 48.0252 39.6944C35.0486 52.4985 22.2393 65.4722 9.60073 78.612L9.60025 78.6115L9.59324 78.6207C8.26967 80.3589 7.63955 82.5266 7.80312 84.7065C7.93242 87.05 8.9828 89.2466 10.7241 90.8149C11.5043 91.6659 12.4354 92.3723 13.4738 92.8835L13.4737 92.8836L13.4775 92.8852C14.5482 93.359 15.7007 93.6306 16.8659 93.6874L16.8659 93.6876L16.8726 93.6875C18.8662 93.6496 20.7775 92.8903 22.2598 91.5556L22.2615 91.554C31.8958 82.4598 50.3399 63.795 60.8495 52.8253L92.2875 21.697ZM16.6526 87.4875C16.9599 87.5408 17.274 87.5408 17.5812 87.4875C17.8935 87.414 18.1826 87.2637 18.4225 87.05L16.6526 87.4875ZM16.6526 87.4875C16.3305 87.4383 16.0237 87.3165 15.7552 87.1313L16.6526 87.4875ZM58.5842 62.5993L58.654 62.5294L62.8544 58.3231L62.9261 58.2513L62.9968 58.3241L82.3534 78.2303L82.3543 78.2312C84.0023 79.9683 84.9214 82.2742 84.9214 84.6719C84.9214 87.0696 84.0023 89.3755 82.3543 91.1126L82.3534 91.1135C81.1135 92.3901 79.519 93.2628 77.7775 93.618C76.036 93.9732 74.2283 93.7943 72.5896 93.1047L72.5877 93.1039C71.5416 92.6385 70.6033 91.9604 69.8322 91.1124C69.8318 91.1119 69.8314 91.1115 69.831 91.111L50.2526 71.095L50.1835 71.0243L50.2533 70.9544L54.4848 66.7169L54.5563 66.6453L54.6271 66.7176L74.1457 86.6801L74.1484 86.6829L74.1483 86.683C74.4003 86.9617 74.7138 87.1775 75.0638 87.313L75.0654 87.3136C75.7585 87.596 76.5341 87.596 77.2272 87.3137L77.2288 87.313C77.5786 87.1773 77.8921 86.9615 78.1443 86.6829L78.1479 86.679L78.148 86.6791C78.4107 86.418 78.6153 86.1041 78.7483 85.7579L78.7485 85.7575C78.8869 85.4024 78.9606 85.0252 78.966 84.644C78.9598 84.2631 78.8882 83.8862 78.7545 83.5296L58.5842 62.5993ZM58.5842 62.5993L58.6533 62.67M58.5842 62.5993L58.6533 62.67M58.6533 62.67L78.1532 82.6075L78.1542 82.6085M58.6533 62.67L78.1542 82.6085M78.1542 82.6085C78.4168 82.8693 78.6213 83.183 78.7542 83.5289L78.1542 82.6085ZM18.3545 86.9767C18.1281 87.1779 17.8555 87.3197 17.5612 87.3895C17.2662 87.4403 16.9647 87.4402 16.6697 87.389L16.6677 87.3887C16.3606 87.3417 16.068 87.2256 15.812 87.049L15.8122 87.0488L15.8058 87.045C15.5315 86.884 15.2996 86.6595 15.1293 86.3903L15.1237 86.3814L15.1163 86.3739C14.6895 85.9367 14.2762 85.3014 14.0704 84.6616C13.8641 84.0203 13.8731 83.3999 14.2468 82.9605C22.763 73.8774 40.2757 56.1449 51.2731 45.2576C51.8803 46.0529 52.5451 46.8128 53.2563 47.5261C53.9691 48.2712 54.7344 48.9637 55.5464 49.5979C44.9086 60.5405 27.629 78.0619 18.3545 86.9767ZM87.6098 30.3938V30.394C87.6222 35.1488 85.7755 39.717 82.4539 43.1232C79.1393 46.3837 74.6817 48.2102 70.039 48.2102C65.3964 48.2102 60.939 46.3839 57.6245 43.1237C55.1951 40.5806 53.5354 37.3981 52.8387 33.9462C52.1419 30.4938 52.4369 26.9139 53.6893 23.6231L53.6896 23.6224C54.5229 21.3838 55.8154 19.3456 57.4834 17.6395C59.1515 15.9334 61.1581 14.5974 63.3734 13.718L63.3752 13.7172C65.4785 12.8343 67.7367 12.3822 70.0169 12.3875H70.0171H71.3642L60.2047 23.9243L60.1765 23.9533V23.9938V28.3438V28.3853L60.2059 28.4146L72.0155 40.2021L72.0448 40.2313H72.0862H76.1993H76.2403L76.2695 40.2025L87.6098 29.0203V30.3938ZM20.2906 41.8893L20.3119 41.9H20.3357H29.8349L34.199 46.3513L34.2696 46.4233L34.3411 46.3521L38.5663 42.1396L38.6365 42.0697L38.5672 41.9989L34.4515 37.7905V37.5643L34.8066 27.2597L34.8075 27.2342L34.7961 27.2114L33.425 24.4802L33.413 24.4563L33.3907 24.4416L15.5673 12.6791L15.537 12.6591L15.501 12.6632L11.8179 13.0757L11.7824 13.0796L11.7575 13.1052L6.57872 18.4114L6.55465 18.4361L6.55088 18.4704L6.13957 22.2141L6.13577 22.2487L6.15429 22.2782L17.6087 40.5157L17.6234 40.5392L17.6482 40.5518L20.2906 41.8893ZM14.4586 19.2279L28.7654 28.6776L28.5277 35.5438H21.9739L12.7482 20.8964L14.4586 19.2279Z" fill="#FF7A00" stroke="#FF7A00" stroke-width="0.2"/>
</svg>
