<svg width="100" height="100" viewBox="0 0 100 100" fill="none" xmlns="http://www.w3.org/2000/svg">
<path d="M41.6666 16.6667C41.6666 12.7383 41.6666 10.7742 42.887 9.55374C44.1073 8.33337 46.0719 8.33337 50 8.33337C53.9281 8.33337 55.8927 8.33337 57.113 9.55374C58.3333 10.7742 58.3333 12.7383 58.3333 16.6667V22.0412C60.2734 22.6185 62.1286 23.3922 63.876 24.3393L67.6781 20.5373C70.4557 17.7595 71.8448 16.3706 73.5708 16.3706C75.2963 16.3706 76.6854 17.7595 79.463 20.5373C82.2411 23.3151 83.6297 24.7039 83.6297 26.4298C83.6297 28.1557 82.2411 29.5446 79.463 32.3224L75.6609 36.1246C76.6078 37.872 77.3817 39.7271 77.9588 41.6667H83.3333C87.2614 41.6667 89.226 41.6667 90.4463 42.887C91.6666 44.1073 91.6666 46.0719 91.6666 50C91.6666 53.9282 91.6666 55.8927 90.4463 57.1131C89.226 58.3334 87.2614 58.3334 83.3333 58.3334H77.9588C77.3817 60.273 76.6078 62.1282 75.6609 63.8756L79.463 67.6776C82.2406 70.4558 83.6297 71.8443 83.6297 73.5704C83.6297 75.2964 82.2406 76.6849 79.463 79.4631C76.6854 82.2407 75.2963 83.6297 73.5703 83.6297C71.8448 83.6297 70.4557 82.2407 67.6781 79.4631L63.876 75.661C62.1281 76.6079 60.2729 77.3818 58.3333 77.9589V83.3334C58.3333 87.2615 58.3333 89.2261 57.113 90.4464C55.8927 91.6667 53.9281 91.6667 50 91.6667C46.0719 91.6667 44.1073 91.6667 42.887 90.4464C41.6666 89.2261 41.6666 87.2615 41.6666 83.3334V77.9589C39.7271 77.3818 37.872 76.6079 36.1245 75.661L32.3228 79.4631C29.545 82.2407 28.1561 83.6297 26.4302 83.6297C24.7044 83.6297 23.3154 82.2407 20.5377 79.4631C17.7599 76.6849 16.371 75.2964 16.371 73.5704C16.371 71.8443 17.7599 70.4558 20.5377 67.6776L24.3393 63.8761C23.3922 62.1287 22.6185 60.2735 22.0411 58.3334H16.6666C12.7383 58.3334 10.7741 58.3334 9.55368 57.1131C8.33331 55.8927 8.33331 53.9282 8.33331 50C8.33331 46.0719 8.33331 44.1073 9.55368 42.887C10.7741 41.6667 12.7383 41.6667 16.6666 41.6667H22.0411C22.6185 39.7271 23.3922 37.8717 24.3391 36.1241L20.5375 32.3224C17.7597 29.5446 16.3708 28.1557 16.3708 26.4298C16.3708 24.7039 17.7597 23.315 20.5375 20.5373C23.3153 17.7595 24.7041 16.3706 26.43 16.3706C28.1559 16.3706 29.5448 17.7595 32.3226 20.5373L36.1244 24.339C37.8719 23.3921 39.7271 22.6185 41.6666 22.0412V16.6667Z" stroke="#FF7A00" stroke-width="7" stroke-linecap="round" stroke-linejoin="round"/>
<path d="M62.5 50C62.5 56.9036 56.9036 62.5 50 62.5C43.0964 62.5 37.5 56.9036 37.5 50C37.5 43.0964 43.0964 37.5 50 37.5C56.9036 37.5 62.5 43.0964 62.5 50Z" stroke="#FF7A00" stroke-width="7" stroke-linecap="round" stroke-linejoin="round"/>
</svg>
