<svg width="101" height="100" viewBox="0 0 101 100" fill="none" xmlns="http://www.w3.org/2000/svg">
<path d="M88.3555 50H80.0222C75.4198 50 71.6888 53.731 71.6888 58.3333V66.6667C71.6888 71.269 75.4198 75 80.0222 75C84.6245 75 88.3555 71.269 88.3555 66.6667V50ZM88.3555 50C88.3555 29.2893 71.5662 12.5 50.8555 12.5C30.1448 12.5 13.3555 29.2893 13.3555 50M13.3555 50V66.6667C13.3555 71.269 17.0865 75 21.6888 75C26.2912 75 30.0222 71.269 30.0222 66.6667V58.3333C30.0222 53.731 26.2912 50 21.6888 50H13.3555Z" stroke="#FF7A00" stroke-width="7.5" stroke-linecap="round" stroke-linejoin="round"/>
<path d="M88.3555 58.3334V75C88.3555 83.3334 85.5777 87.5 80.0222 87.5C74.4666 87.5 67.5222 87.5 59.1888 87.5" stroke="#FF7A00" stroke-width="7.5" stroke-linecap="round" stroke-linejoin="round"/>
</svg>
