<svg width="32" height="32" viewBox="0 0 32 32" fill="none" xmlns="http://www.w3.org/2000/svg">
<path d="M31.2225 20.6918L20.687 31.2249C20.1869 31.7214 19.5109 32 18.8062 32C18.1016 32 17.4255 31.7214 16.9255 31.2249L1.85074 16.1501C0.726136 14.8965 0.071939 13.2911 0 11.6085L0.103219 2.7725C0.116188 2.0627 0.404257 1.38566 0.906695 0.884121C1.40913 0.382578 2.08668 0.0957181 2.79651 0.0840149L11.6061 0C13.2888 0.07583 14.8934 0.731414 16.1477 1.85554L31.2225 16.9303C31.719 17.4303 31.9976 18.1064 31.9976 18.811C31.9976 19.5157 31.719 20.1917 31.2225 20.6918ZM7.17971 5.36018C7.17971 4.98417 7.06821 4.6166 6.85931 4.30396C6.65041 3.99131 6.35349 3.74764 6.0061 3.60375C5.65871 3.45985 5.27645 3.4222 4.90767 3.49556C4.53888 3.56892 4.20013 3.74998 3.93425 4.01586C3.66837 4.28174 3.4873 4.62049 3.41395 4.98928C3.34059 5.35807 3.37824 5.74032 3.52213 6.08771C3.66602 6.4351 3.9097 6.73202 4.22234 6.94092C4.53498 7.14982 4.90255 7.26132 5.27856 7.26132C5.78278 7.26132 6.26634 7.06102 6.62288 6.70449C6.97941 6.34796 7.17971 5.86439 7.17971 5.36018ZM23.0082 22.9986C23.1319 22.8751 23.23 22.7284 23.2969 22.5669C23.3639 22.4055 23.3983 22.2324 23.3983 22.0576C23.3983 21.8828 23.3639 21.7098 23.2969 21.5483C23.23 21.3868 23.1319 21.2402 23.0082 21.1166L22.0456 20.1541C22.4426 19.5456 22.7272 18.8707 22.8858 18.1617C23.055 17.5294 23.0561 16.8639 22.8889 16.2311C22.7218 15.5983 22.3922 15.0201 21.9328 14.5539C21.2792 13.9029 20.412 13.5106 19.4916 13.4497C18.8841 13.4105 18.2745 13.4795 17.6912 13.6537H17.6864C17.1868 13.8111 16.7104 14.0347 16.2702 14.3186H16.263C15.8832 14.5664 15.5308 14.8536 15.2116 15.1756C15.0194 15.3686 14.8114 15.5452 14.5899 15.7037C14.3476 15.877 14.0816 16.0144 13.8001 16.1117H13.7953C13.534 16.1975 13.2578 16.2285 12.984 16.203H12.9792C12.6987 16.1805 12.4337 16.0657 12.2254 15.8765C12.0731 15.7046 11.9692 15.4953 11.9245 15.2701C11.8798 15.0448 11.8958 14.8117 11.971 14.5947C12.139 13.9481 12.4791 13.3591 12.9552 12.8903C13.1274 12.7426 13.3121 12.6101 13.5073 12.4943L13.5793 12.4487C13.8238 12.2991 14.0828 12.1744 14.3522 12.0766C14.6017 11.983 14.8659 11.9342 15.1324 11.9326C15.4851 11.9326 15.8233 11.7925 16.0727 11.5431C16.3221 11.2937 16.4622 10.9554 16.4622 10.6027C16.4622 10.25 16.3221 9.91179 16.0727 9.66239C15.8233 9.413 15.4851 9.27289 15.1324 9.27289C14.5444 9.27524 13.9591 9.38254 13.4088 9.58975C12.9651 9.75327 12.5395 9.96243 12.139 10.2139L12.115 10.2283L11.1596 9.26809C11.0359 9.14452 10.8891 9.04653 10.7275 8.97971C10.5659 8.9129 10.3927 8.87857 10.2178 8.87868C10.0429 8.87879 9.86982 8.91334 9.7083 8.98036C9.54679 9.04738 9.40006 9.14556 9.27649 9.26929C9.15292 9.39302 9.05493 9.53987 8.98811 9.70147C8.9213 9.86307 8.88697 10.0362 8.88708 10.2111C8.88719 10.386 8.92174 10.5591 8.98876 10.7206C9.05579 10.8821 9.15396 11.0289 9.27769 11.1524L10.2091 12.0814C9.82086 12.6703 9.53894 13.3227 9.37611 14.009C9.20229 14.6642 9.2002 15.3532 9.37006 16.0096C9.53992 16.6659 9.876 17.2674 10.3459 17.756C10.9837 18.3806 11.8167 18.7671 12.7055 18.8506C13.3575 18.9175 14.0162 18.8447 14.6379 18.637C15.1723 18.4573 15.6771 18.1993 16.1357 17.8713C16.4763 17.627 16.7958 17.3548 17.0911 17.0575C17.2778 16.8699 17.4838 16.7026 17.7056 16.5582C17.9451 16.405 18.2032 16.2831 18.4738 16.1958C18.7449 16.1176 19.0275 16.0867 19.3091 16.1045C19.5876 16.1235 19.85 16.2419 20.0485 16.4382C20.1685 16.5558 20.4445 16.8343 20.2813 17.6096C20.1168 18.2725 19.774 18.8777 19.2899 19.3595C19.0788 19.5506 18.8541 19.7263 18.6178 19.8852C18.3861 20.035 18.14 20.1612 17.8833 20.2621C17.6389 20.3562 17.3755 20.3908 17.1151 20.3629C16.9408 20.3503 16.7657 20.3721 16.5998 20.4272C16.4339 20.4823 16.2805 20.5695 16.1484 20.6838C16.0162 20.7982 15.9078 20.9374 15.8294 21.0937C15.7511 21.2499 15.7043 21.42 15.6917 21.5943C15.6791 21.7687 15.7009 21.9438 15.756 22.1096C15.811 22.2755 15.8982 22.4289 16.0126 22.5611C16.1269 22.6933 16.2662 22.8016 16.4224 22.88C16.5786 22.9584 16.7488 23.0052 16.9231 23.0178C17.0479 23.0274 17.1703 23.0298 17.288 23.0298C17.8523 23.0359 18.4118 22.9264 18.9322 22.7081C19.36 22.5364 19.768 22.3191 20.1493 22.06L20.1733 22.0432L21.1262 22.9986C21.3759 23.247 21.7138 23.3865 22.066 23.3865C22.4182 23.3865 22.7561 23.247 23.0058 22.9986H23.0082Z" fill="white"/>
</svg>
