<svg width="32" height="32" viewBox="0 0 32 32" fill="none" xmlns="http://www.w3.org/2000/svg">
<path d="M0 3.50397V14.4401C0 15.6836 0.490113 16.876 1.36793 17.7538L14.2425 30.6284C16.0713 32.4572 19.0339 32.4572 20.8627 30.6284L30.6284 20.8628C32.4572 19.034 32.4572 16.0713 30.6284 14.2426L17.7538 1.36795C16.876 0.490139 15.6836 2.54148e-05 14.44 2.54148e-05H3.51126C1.57275 -0.00728971 0 1.56546 0 3.50397ZM8.19294 5.84481C8.81377 5.84481 9.40917 6.09143 9.84816 6.53042C10.2872 6.96942 10.5338 7.56482 10.5338 8.18565C10.5338 8.80647 10.2872 9.40188 9.84816 9.84087C9.40917 10.2799 8.81377 10.5265 8.19294 10.5265C7.57211 10.5265 6.97671 10.2799 6.53771 9.84087C6.09872 9.40188 5.8521 8.80647 5.8521 8.18565C5.8521 7.56482 6.09872 6.96942 6.53771 6.53042C6.97671 6.09143 7.57211 5.84481 8.19294 5.84481Z" fill="white"/>
</svg>
