<svg width="30" height="30" viewBox="0 0 30 30" fill="none" xmlns="http://www.w3.org/2000/svg">
<path d="M12.8203 11.8418L18.3984 15.0117L12.8203 18.1816V11.8418ZM28.125 4.6875V25.3125C28.125 26.8652 26.8652 28.125 25.3125 28.125H4.6875C3.13477 28.125 1.875 26.8652 1.875 25.3125V4.6875C1.875 3.13477 3.13477 1.875 4.6875 1.875H25.3125C26.8652 1.875 28.125 3.13477 28.125 4.6875ZM25.6641 15.0176C25.6641 15.0176 25.6641 11.5254 25.2188 9.84961C24.9727 8.92383 24.252 8.19727 23.332 7.95117C21.6738 7.5 15 7.5 15 7.5C15 7.5 8.32617 7.5 6.66797 7.95117C5.74805 8.19727 5.02734 8.92383 4.78125 9.84961C4.33594 11.5195 4.33594 15.0176 4.33594 15.0176C4.33594 15.0176 4.33594 18.5098 4.78125 20.1855C5.02734 21.1113 5.74805 21.8086 6.66797 22.0547C8.32617 22.5 15 22.5 15 22.5C15 22.5 21.6738 22.5 23.332 22.0488C24.252 21.8027 24.9727 21.1055 25.2188 20.1797C25.6641 18.5098 25.6641 15.0176 25.6641 15.0176Z" fill="white"/>
</svg>
